<svg width="60" height="40" viewBox="0 0 60 40" fill="none" xmlns="http://www.w3.org/2000/svg">
<path d="M27.1716 38.8284C28.7337 40.3905 31.2663 40.3905 32.8284 38.8284L58.2843 13.3726C59.8464 11.8105 59.8464 9.27783 58.2843 7.71573C56.7222 6.15363 54.1895 6.15363 52.6274 7.71573L30 30.3431L7.37258 7.71573C5.81049 6.15363 3.27783 6.15363 1.71573 7.71573C0.153631 9.27783 0.153631 11.8105 1.71573 13.3726L27.1716 38.8284ZM26 35V36H34V35H26Z" fill="#FFFFFE"/>
<path d="M28.2322 20.7678C29.2085 21.7441 30.7915 21.7441 31.7678 20.7678L47.6777 4.85786C48.654 3.88155 48.654 2.29864 47.6777 1.32233C46.7014 0.34602 45.1184 0.34602 44.1421 1.32233L30 15.4645L15.8579 1.32233C14.8816 0.34602 13.2986 0.34602 12.3223 1.32233C11.346 2.29864 11.346 3.88155 12.3223 4.85786L28.2322 20.7678ZM27.5 18V19H32.5V18H27.5Z" fill="#FFFFFE"/>
</svg>
